<svg xmlns="http://www.w3.org/2000/svg" version="1.1" width="154" height="154">
<path d="M 9.707031 9.718750 L 9.707031 8.625000 L 3.800781 8.625000 L 3.800781 18.742188 L 4.853516 18.742188 L 4.853516 9.718750 Z " fill="rgb(0, 0, 0)" fill-opacity="1.000000" />
<path d="M 3.800781 35.742188 L 4.853516 35.742188 L 4.853516 16.601562 L 3.800781 16.601562 Z " fill="rgb(0, 0, 0)" fill-opacity="1.000000" />
<path d="M 9.707031 43.718750 L 9.707031 42.625000 L 4.853516 42.625000 L 4.853516 33.601562 L 3.800781 33.601562 L 3.800781 52.742188 L 4.853516 52.742188 L 4.853516 43.718750 Z " fill="rgb(0, 0, 0)" fill-opacity="1.000000" />
<path d="M 3.800781 69.742188 L 4.853516 69.742188 L 4.853516 50.601562 L 3.800781 50.601562 Z " fill="rgb(0, 0, 0)" fill-opacity="1.000000" />
<path d="M 9.707031 77.718750 L 9.707031 76.625000 L 4.853516 76.625000 L 4.853516 67.601562 L 3.800781 67.601562 L 3.800781 86.742188 L 4.853516 86.742188 L 4.853516 77.718750 Z " fill="rgb(0, 0, 0)" fill-opacity="1.000000" />
<path d="M 3.800781 103.742188 L 4.853516 103.742188 L 4.853516 84.601562 L 3.800781 84.601562 Z " fill="rgb(0, 0, 0)" fill-opacity="1.000000" />
<path d="M 9.707031 111.718750 L 9.707031 110.625000 L 4.853516 110.625000 L 4.853516 101.601562 L 3.800781 101.601562 L 3.800781 120.742188 L 4.853516 120.742188 L 4.853516 111.718750 Z " fill="rgb(0, 0, 0)" fill-opacity="1.000000" />
<path d="M 3.800781 137.742188 L 4.853516 137.742188 L 4.853516 118.601562 L 3.800781 118.601562 Z " fill="rgb(0, 0, 0)" fill-opacity="1.000000" />
<path d="M 9.707031 145.718750 L 9.707031 144.625000 L 4.853516 144.625000 L 4.853516 135.601562 L 3.800781 135.601562 L 3.800781 145.718750 Z " fill="rgb(0, 0, 0)" fill-opacity="1.000000" />
<path d="M 7.947266 145.718750 L 18.707031 145.718750 L 18.707031 144.625000 L 7.947266 144.625000 Z " fill="rgb(0, 0, 0)" fill-opacity="1.000000" />
<path d="M 16.947266 145.718750 L 27.707031 145.718750 L 27.707031 144.625000 L 16.947266 144.625000 Z " fill="rgb(0, 0, 0)" fill-opacity="1.000000" />
<path d="M 25.947266 145.718750 L 36.707031 145.718750 L 36.707031 144.625000 L 25.947266 144.625000 Z " fill="rgb(0, 0, 0)" fill-opacity="1.000000" />
<path d="M 40.853516 145.718750 L 40.853516 135.601562 L 39.800781 135.601562 L 39.800781 144.625000 L 34.947266 144.625000 L 34.947266 145.718750 Z " fill="rgb(0, 0, 0)" fill-opacity="1.000000" />
<path d="M 25.669922 130.878906 L 20.994141 130.878906 L 20.994141 122.135742 L 19.797852 122.135742 L 19.797852 132.000000 L 25.669922 132.000000 Z " fill="rgb(0, 0, 0)" fill-opacity="1.000000" />
<path d="M 39.800781 137.742188 L 40.853516 137.742188 L 40.853516 118.601562 L 39.800781 118.601562 Z " fill="rgb(0, 0, 0)" fill-opacity="1.000000" />
<path d="M 43.947266 128.718750 L 54.707031 128.718750 L 54.707031 127.625000 L 43.947266 127.625000 Z " fill="rgb(0, 0, 0)" fill-opacity="1.000000" />
<path d="M 52.947266 128.718750 L 63.707031 128.718750 L 63.707031 127.625000 L 52.947266 127.625000 Z " fill="rgb(0, 0, 0)" fill-opacity="1.000000" />
<path d="M 61.947266 128.718750 L 72.707031 128.718750 L 72.707031 127.625000 L 61.947266 127.625000 Z " fill="rgb(0, 0, 0)" fill-opacity="1.000000" />
<path d="M 70.947266 128.718750 L 81.707031 128.718750 L 81.707031 127.625000 L 70.947266 127.625000 Z " fill="rgb(0, 0, 0)" fill-opacity="1.000000" />
<path d="M 79.947266 128.718750 L 90.707031 128.718750 L 90.707031 127.625000 L 79.947266 127.625000 Z " fill="rgb(0, 0, 0)" fill-opacity="1.000000" />
<path d="M 106.567383 132.000000 L 106.567383 131.036133 L 104.120117 131.036133 L 104.120117 121.670898 L 100.442383 121.670898 L 100.442383 122.634766 L 102.958008 122.634766 L 102.958008 131.036133 L 100.421875 131.036133 L 100.421875 132.000000 Z " fill="rgb(0, 0, 0)" fill-opacity="1.000000" />
<path d="M 112.327148 132.136719 C 114.289062 132.136719 115.540039 130.858398 115.540039 128.855469 L 115.540039 127.734375 C 115.540039 125.731445 114.289062 124.453125 112.327148 124.453125 C 110.365234 124.453125 109.114258 125.731445 109.114258 127.734375 L 109.114258 128.855469 C 109.114258 130.858398 110.365234 132.136719 112.327148 132.136719 Z M 112.327148 125.478516 C 113.598633 125.478516 114.391602 126.380859 114.391602 127.836914 L 114.391602 128.746094 C 114.391602 130.208984 113.598633 131.104492 112.327148 131.104492 C 111.055664 131.104492 110.262695 130.208984 110.262695 128.746094 L 110.262695 127.836914 C 110.262695 126.380859 111.055664 125.478516 112.327148 125.478516 Z " fill="rgb(0, 0, 0)" fill-opacity="1.000000" />
<path d="M 121.327148 132.136719 C 123.289062 132.136719 124.540039 130.858398 124.540039 128.855469 L 124.540039 127.734375 C 124.540039 125.731445 123.289062 124.453125 121.327148 124.453125 C 119.365234 124.453125 118.114258 125.731445 118.114258 127.734375 L 118.114258 128.855469 C 118.114258 130.858398 119.365234 132.136719 121.327148 132.136719 Z M 121.327148 125.478516 C 122.598633 125.478516 123.391602 126.380859 123.391602 127.836914 L 123.391602 128.746094 C 123.391602 130.208984 122.598633 131.104492 121.327148 131.104492 C 120.055664 131.104492 119.262695 130.208984 119.262695 128.746094 L 119.262695 127.836914 C 119.262695 126.380859 120.055664 125.478516 121.327148 125.478516 Z " fill="rgb(0, 0, 0)" fill-opacity="1.000000" />
<path d="M 130.791992 124.459961 C 129.732422 124.459961 128.959961 124.897461 128.570312 125.717773 L 128.447266 125.717773 L 128.447266 124.583008 L 127.298828 124.583008 L 127.298828 134.501953 L 128.481445 134.501953 L 128.481445 130.851562 L 128.611328 130.851562 C 128.932617 131.665039 129.718750 132.123047 130.791992 132.123047 C 132.507812 132.123047 133.628906 130.885742 133.628906 128.985352 L 133.628906 127.604492 C 133.628906 125.697266 132.507812 124.459961 130.791992 124.459961 Z M 130.457031 125.526367 C 131.680664 125.526367 132.459961 126.401367 132.459961 127.768555 L 132.459961 128.834961 C 132.459961 130.202148 131.680664 131.083984 130.457031 131.083984 C 129.233398 131.083984 128.454102 130.208984 128.454102 128.834961 L 128.454102 127.768555 C 128.454102 126.401367 129.233398 125.526367 130.457031 125.526367 Z " fill="rgb(0, 0, 0)" fill-opacity="1.000000" />
<path d="M 7.947266 111.718750 L 18.707031 111.718750 L 18.707031 110.625000 L 7.947266 110.625000 Z " fill="rgb(0, 0, 0)" fill-opacity="1.000000" />
<path d="M 16.947266 111.718750 L 27.707031 111.718750 L 27.707031 110.625000 L 16.947266 110.625000 Z " fill="rgb(0, 0, 0)" fill-opacity="1.000000" />
<path d="M 25.947266 111.718750 L 36.707031 111.718750 L 36.707031 110.625000 L 25.947266 110.625000 Z " fill="rgb(0, 0, 0)" fill-opacity="1.000000" />
<path d="M 40.853516 120.742188 L 40.853516 101.601562 L 39.800781 101.601562 L 39.800781 110.625000 L 34.947266 110.625000 L 34.947266 111.718750 L 39.800781 111.718750 L 39.800781 120.742188 Z " fill="rgb(0, 0, 0)" fill-opacity="1.000000" />
<path d="M 19.353516 88.135742 L 19.353516 98.000000 L 20.563477 98.000000 L 20.563477 94.458984 L 22.607422 94.458984 C 24.535156 94.458984 25.799805 93.208008 25.799805 91.300781 C 25.799805 89.386719 24.548828 88.135742 22.634766 88.135742 Z M 20.563477 89.208984 L 22.333984 89.208984 C 23.769531 89.208984 24.576172 89.954102 24.576172 91.300781 C 24.576172 92.640625 23.769531 93.385742 22.333984 93.385742 L 20.563477 93.385742 Z " fill="rgb(0, 0, 0)" fill-opacity="1.000000" />
<path d="M 39.800781 103.742188 L 40.853516 103.742188 L 40.853516 84.601562 L 39.800781 84.601562 Z " fill="rgb(0, 0, 0)" fill-opacity="1.000000" />
<path d="M 43.947266 94.718750 L 54.707031 94.718750 L 54.707031 93.625000 L 43.947266 93.625000 Z " fill="rgb(0, 0, 0)" fill-opacity="1.000000" />
<path d="M 52.947266 94.718750 L 63.707031 94.718750 L 63.707031 93.625000 L 52.947266 93.625000 Z " fill="rgb(0, 0, 0)" fill-opacity="1.000000" />
<path d="M 61.947266 94.718750 L 72.707031 94.718750 L 72.707031 93.625000 L 61.947266 93.625000 Z " fill="rgb(0, 0, 0)" fill-opacity="1.000000" />
<path d="M 70.947266 94.718750 L 81.707031 94.718750 L 81.707031 93.625000 L 70.947266 93.625000 Z " fill="rgb(0, 0, 0)" fill-opacity="1.000000" />
<path d="M 79.947266 94.718750 L 90.707031 94.718750 L 90.707031 93.625000 L 79.947266 93.625000 Z " fill="rgb(0, 0, 0)" fill-opacity="1.000000" />
<path d="M 103.791992 90.459961 C 102.732422 90.459961 101.959961 90.897461 101.570312 91.717773 L 101.447266 91.717773 L 101.447266 90.583008 L 100.298828 90.583008 L 100.298828 100.501953 L 101.481445 100.501953 L 101.481445 96.851562 L 101.611328 96.851562 C 101.932617 97.665039 102.718750 98.123047 103.791992 98.123047 C 105.507812 98.123047 106.628906 96.885742 106.628906 94.985352 L 106.628906 93.604492 C 106.628906 91.697266 105.507812 90.459961 103.791992 90.459961 Z M 103.457031 91.526367 C 104.680664 91.526367 105.459961 92.401367 105.459961 93.768555 L 105.459961 94.834961 C 105.459961 96.202148 104.680664 97.083984 103.457031 97.083984 C 102.233398 97.083984 101.454102 96.208984 101.454102 94.834961 L 101.454102 93.768555 C 101.454102 92.401367 102.233398 91.526367 103.457031 91.526367 Z " fill="rgb(0, 0, 0)" fill-opacity="1.000000" />
<path d="M 112.033203 94.677734 C 112.033203 92.791016 113.003906 91.656250 114.644531 91.656250 C 115.047852 91.656250 115.526367 91.738281 115.868164 91.861328 L 115.868164 90.555664 C 115.622070 90.453125 115.218750 90.391602 114.794922 90.391602 C 113.366211 90.391602 112.443359 91.102539 112.169922 92.476562 L 112.019531 92.476562 L 112.019531 90.583008 L 109.250977 90.583008 L 109.250977 91.512695 L 110.898438 91.512695 L 110.898438 97.070312 L 109.401367 97.070312 L 109.401367 98.000000 L 114.330078 98.000000 L 114.330078 97.070312 L 112.033203 97.070312 Z " fill="rgb(0, 0, 0)" fill-opacity="1.000000" />
<path d="M 121.457031 88.764648 C 122.003906 88.764648 122.420898 88.354492 122.420898 87.807617 C 122.420898 87.267578 122.003906 86.857422 121.457031 86.857422 C 120.910156 86.857422 120.493164 87.267578 120.493164 87.807617 C 120.493164 88.354492 120.910156 88.764648 121.457031 88.764648 Z M 124.567383 98.000000 L 124.567383 97.036133 L 122.113281 97.036133 L 122.113281 90.583008 L 118.442383 90.583008 L 118.442383 91.546875 L 120.964844 91.546875 L 120.964844 97.036133 L 118.421875 97.036133 L 118.421875 98.000000 Z " fill="rgb(0, 0, 0)" fill-opacity="1.000000" />
<path d="M 127.291992 98.000000 L 128.454102 98.000000 L 128.454102 93.631836 C 128.454102 92.367188 129.274414 91.512695 130.498047 91.512695 C 131.653320 91.512695 132.200195 92.141602 132.200195 93.481445 L 132.200195 98.000000 L 133.362305 98.000000 L 133.362305 93.187500 C 133.362305 91.410156 132.487305 90.446289 130.874023 90.446289 C 129.746094 90.446289 128.898438 90.965820 128.501953 91.888672 L 128.406250 91.888672 L 128.406250 90.583008 L 127.291992 90.583008 Z " fill="rgb(0, 0, 0)" fill-opacity="1.000000" />
<path d="M 138.062500 88.593750 L 138.062500 90.603516 L 136.086914 90.603516 L 136.086914 91.594727 L 138.062500 91.594727 L 138.062500 95.791992 C 138.062500 97.336914 138.916992 98.034180 140.755859 98.034180 C 141.111328 98.034180 142.013672 98.000000 142.198242 97.965820 L 142.198242 96.981445 C 142.000000 97.001953 141.254883 97.022461 140.837891 97.022461 C 139.791992 97.022461 139.224609 96.584961 139.224609 95.778320 L 139.224609 91.594727 L 142.218750 91.594727 L 142.218750 90.603516 L 139.210938 90.603516 L 139.210938 88.593750 Z " fill="rgb(0, 0, 0)" fill-opacity="1.000000" />
<path d="M 7.947266 77.718750 L 18.707031 77.718750 L 18.707031 76.625000 L 7.947266 76.625000 Z " fill="rgb(0, 0, 0)" fill-opacity="1.000000" />
<path d="M 16.947266 77.718750 L 27.707031 77.718750 L 27.707031 76.625000 L 16.947266 76.625000 Z " fill="rgb(0, 0, 0)" fill-opacity="1.000000" />
<path d="M 25.947266 77.718750 L 36.707031 77.718750 L 36.707031 76.625000 L 25.947266 76.625000 Z " fill="rgb(0, 0, 0)" fill-opacity="1.000000" />
<path d="M 40.853516 86.742188 L 40.853516 67.601562 L 39.800781 67.601562 L 39.800781 76.625000 L 34.947266 76.625000 L 34.947266 77.718750 L 39.800781 77.718750 L 39.800781 86.742188 Z " fill="rgb(0, 0, 0)" fill-opacity="1.000000" />
<path d="M 25.396484 62.892578 L 20.782227 62.892578 L 20.782227 59.501953 L 25.143555 59.501953 L 25.143555 58.442383 L 20.782227 58.442383 L 20.782227 55.243164 L 25.396484 55.243164 L 25.396484 54.135742 L 19.572266 54.135742 L 19.572266 64.000000 L 25.396484 64.000000 Z " fill="rgb(0, 0, 0)" fill-opacity="1.000000" />
<path d="M 39.800781 69.742188 L 40.853516 69.742188 L 40.853516 50.601562 L 39.800781 50.601562 Z " fill="rgb(0, 0, 0)" fill-opacity="1.000000" />
<path d="M 43.947266 60.718750 L 54.707031 60.718750 L 54.707031 59.625000 L 43.947266 59.625000 Z " fill="rgb(0, 0, 0)" fill-opacity="1.000000" />
<path d="M 52.947266 60.718750 L 63.707031 60.718750 L 63.707031 59.625000 L 52.947266 59.625000 Z " fill="rgb(0, 0, 0)" fill-opacity="1.000000" />
<path d="M 61.947266 60.718750 L 72.707031 60.718750 L 72.707031 59.625000 L 61.947266 59.625000 Z " fill="rgb(0, 0, 0)" fill-opacity="1.000000" />
<path d="M 70.947266 60.718750 L 81.707031 60.718750 L 81.707031 59.625000 L 70.947266 59.625000 Z " fill="rgb(0, 0, 0)" fill-opacity="1.000000" />
<path d="M 79.947266 60.718750 L 90.707031 60.718750 L 90.707031 59.625000 L 79.947266 59.625000 Z " fill="rgb(0, 0, 0)" fill-opacity="1.000000" />
<path d="M 105.330078 62.085938 C 105.125000 62.735352 104.434570 63.131836 103.498047 63.131836 C 102.233398 63.131836 101.426758 62.256836 101.426758 60.896484 L 101.426758 60.595703 L 106.478516 60.595703 L 106.478516 59.871094 C 106.478516 57.724609 105.343750 56.446289 103.416016 56.446289 C 101.529297 56.446289 100.278320 57.731445 100.278320 59.686523 L 100.278320 60.800781 C 100.278320 62.913086 101.460938 64.136719 103.498047 64.136719 C 105.056641 64.136719 106.232422 63.309570 106.458008 62.085938 Z M 103.409180 57.444336 C 104.605469 57.444336 105.330078 58.298828 105.330078 59.713867 L 101.426758 59.713867 C 101.426758 58.291992 102.171875 57.444336 103.409180 57.444336 Z " fill="rgb(0, 0, 0)" fill-opacity="1.000000" />
<path d="M 108.977539 56.583008 L 111.691406 64.000000 L 112.969727 64.000000 L 115.676758 56.583008 L 114.439453 56.583008 L 112.381836 62.755859 L 112.292969 62.755859 L 110.221680 56.583008 Z " fill="rgb(0, 0, 0)" fill-opacity="1.000000" />
<path d="M 120.575195 64.129883 C 121.655273 64.129883 122.461914 63.685547 122.817383 62.892578 L 122.933594 62.892578 L 122.933594 64.006836 L 124.041016 64.006836 L 124.041016 58.927734 C 124.041016 57.382812 123.042969 56.494141 121.299805 56.494141 C 119.782227 56.494141 118.633789 57.307617 118.497070 58.497070 L 119.638672 58.497070 C 119.830078 57.861328 120.431641 57.499023 121.286133 57.499023 C 122.318359 57.499023 122.885742 58.011719 122.885742 58.941406 L 122.885742 59.611328 L 120.848633 59.713867 C 119.160156 59.802734 118.216797 60.582031 118.216797 61.894531 C 118.216797 63.241211 119.160156 64.129883 120.575195 64.129883 Z M 120.910156 63.111328 C 119.973633 63.111328 119.392578 62.632812 119.392578 61.853516 C 119.392578 61.081055 119.939453 60.636719 120.978516 60.588867 L 122.885742 60.500000 L 122.885742 61.375000 C 122.885742 62.366211 122.031250 63.111328 120.910156 63.111328 Z " fill="rgb(0, 0, 0)" fill-opacity="1.000000" />
<path d="M 133.567383 64.000000 L 133.567383 63.036133 L 131.120117 63.036133 L 131.120117 53.670898 L 127.442383 53.670898 L 127.442383 54.634766 L 129.958008 54.634766 L 129.958008 63.036133 L 127.421875 63.036133 L 127.421875 64.000000 Z " fill="rgb(0, 0, 0)" fill-opacity="1.000000" />
<path d="M 7.947266 43.718750 L 18.707031 43.718750 L 18.707031 42.625000 L 7.947266 42.625000 Z " fill="rgb(0, 0, 0)" fill-opacity="1.000000" />
<path d="M 16.947266 43.718750 L 27.707031 43.718750 L 27.707031 42.625000 L 16.947266 42.625000 Z " fill="rgb(0, 0, 0)" fill-opacity="1.000000" />
<path d="M 25.947266 43.718750 L 36.707031 43.718750 L 36.707031 42.625000 L 25.947266 42.625000 Z " fill="rgb(0, 0, 0)" fill-opacity="1.000000" />
<path d="M 40.853516 52.742188 L 40.853516 33.601562 L 39.800781 33.601562 L 39.800781 42.625000 L 34.947266 42.625000 L 34.947266 43.718750 L 39.800781 43.718750 L 39.800781 52.742188 Z " fill="rgb(0, 0, 0)" fill-opacity="1.000000" />
<path d="M 22.703125 26.069336 L 24.541992 30.000000 L 25.902344 30.000000 L 23.892578 25.823242 C 25.013672 25.454102 25.731445 24.394531 25.731445 23.102539 C 25.731445 21.270508 24.507812 20.135742 22.552734 20.135742 L 19.244141 20.135742 L 19.244141 30.000000 L 20.433594 30.000000 L 20.433594 26.069336 Z M 20.433594 21.208984 L 22.443359 21.208984 C 23.762695 21.208984 24.514648 21.906250 24.514648 23.129883 C 24.514648 24.360352 23.749023 25.050781 22.388672 25.050781 L 20.433594 25.050781 Z " fill="rgb(0, 0, 0)" fill-opacity="1.000000" />
<path d="M 39.800781 35.742188 L 40.853516 35.742188 L 40.853516 16.601562 L 39.800781 16.601562 Z " fill="rgb(0, 0, 0)" fill-opacity="1.000000" />
<path d="M 43.947266 26.718750 L 54.707031 26.718750 L 54.707031 25.625000 L 43.947266 25.625000 Z " fill="rgb(0, 0, 0)" fill-opacity="1.000000" />
<path d="M 52.947266 26.718750 L 63.707031 26.718750 L 63.707031 25.625000 L 52.947266 25.625000 Z " fill="rgb(0, 0, 0)" fill-opacity="1.000000" />
<path d="M 61.947266 26.718750 L 72.707031 26.718750 L 72.707031 25.625000 L 61.947266 25.625000 Z " fill="rgb(0, 0, 0)" fill-opacity="1.000000" />
<path d="M 70.947266 26.718750 L 81.707031 26.718750 L 81.707031 25.625000 L 70.947266 25.625000 Z " fill="rgb(0, 0, 0)" fill-opacity="1.000000" />
<path d="M 79.947266 26.718750 L 90.707031 26.718750 L 90.707031 25.625000 L 79.947266 25.625000 Z " fill="rgb(0, 0, 0)" fill-opacity="1.000000" />
<path d="M 103.033203 26.677734 C 103.033203 24.791016 104.003906 23.656250 105.644531 23.656250 C 106.047852 23.656250 106.526367 23.738281 106.868164 23.861328 L 106.868164 22.555664 C 106.622070 22.453125 106.218750 22.391602 105.794922 22.391602 C 104.366211 22.391602 103.443359 23.102539 103.169922 24.476562 L 103.019531 24.476562 L 103.019531 22.583008 L 100.250977 22.583008 L 100.250977 23.512695 L 101.898438 23.512695 L 101.898438 29.070312 L 100.401367 29.070312 L 100.401367 30.000000 L 105.330078 30.000000 L 105.330078 29.070312 L 103.033203 29.070312 Z " fill="rgb(0, 0, 0)" fill-opacity="1.000000" />
<path d="M 114.330078 28.085938 C 114.125000 28.735352 113.434570 29.131836 112.498047 29.131836 C 111.233398 29.131836 110.426758 28.256836 110.426758 26.896484 L 110.426758 26.595703 L 115.478516 26.595703 L 115.478516 25.871094 C 115.478516 23.724609 114.343750 22.446289 112.416016 22.446289 C 110.529297 22.446289 109.278320 23.731445 109.278320 25.686523 L 109.278320 26.800781 C 109.278320 28.913086 110.460938 30.136719 112.498047 30.136719 C 114.056641 30.136719 115.232422 29.309570 115.458008 28.085938 Z M 112.409180 23.444336 C 113.605469 23.444336 114.330078 24.298828 114.330078 25.713867 L 110.426758 25.713867 C 110.426758 24.291992 111.171875 23.444336 112.409180 23.444336 Z " fill="rgb(0, 0, 0)" fill-opacity="1.000000" />
<path d="M 120.575195 30.129883 C 121.655273 30.129883 122.461914 29.685547 122.817383 28.892578 L 122.933594 28.892578 L 122.933594 30.006836 L 124.041016 30.006836 L 124.041016 24.927734 C 124.041016 23.382812 123.042969 22.494141 121.299805 22.494141 C 119.782227 22.494141 118.633789 23.307617 118.497070 24.497070 L 119.638672 24.497070 C 119.830078 23.861328 120.431641 23.499023 121.286133 23.499023 C 122.318359 23.499023 122.885742 24.011719 122.885742 24.941406 L 122.885742 25.611328 L 120.848633 25.713867 C 119.160156 25.802734 118.216797 26.582031 118.216797 27.894531 C 118.216797 29.241211 119.160156 30.129883 120.575195 30.129883 Z M 120.910156 29.111328 C 119.973633 29.111328 119.392578 28.632812 119.392578 27.853516 C 119.392578 27.081055 119.939453 26.636719 120.978516 26.588867 L 122.885742 26.500000 L 122.885742 27.375000 C 122.885742 28.366211 122.031250 29.111328 120.910156 29.111328 Z " fill="rgb(0, 0, 0)" fill-opacity="1.000000" />
<path d="M 129.862305 30.123047 C 130.921875 30.123047 131.701172 29.685547 132.083984 28.865234 L 132.213867 28.865234 L 132.213867 30.000000 L 133.355469 30.000000 L 133.355469 19.670898 L 132.172852 19.670898 L 132.172852 23.731445 L 132.049805 23.731445 C 131.728516 22.917969 130.935547 22.459961 129.862305 22.459961 C 128.146484 22.459961 127.025391 23.697266 127.025391 25.597656 L 127.025391 26.978516 C 127.025391 28.885742 128.146484 30.123047 129.862305 30.123047 Z M 130.204102 29.063477 C 128.980469 29.063477 128.194336 28.181641 128.194336 26.814453 L 128.194336 25.748047 C 128.194336 24.380859 128.980469 23.505859 130.204102 23.505859 C 131.420898 23.505859 132.207031 24.380859 132.207031 25.748047 L 132.207031 26.814453 C 132.207031 28.188477 131.420898 29.063477 130.204102 29.063477 Z " fill="rgb(0, 0, 0)" fill-opacity="1.000000" />
<path d="M 7.947266 9.718750 L 18.707031 9.718750 L 18.707031 8.625000 L 7.947266 8.625000 Z " fill="rgb(0, 0, 0)" fill-opacity="1.000000" />
<path d="M 16.947266 9.718750 L 27.707031 9.718750 L 27.707031 8.625000 L 16.947266 8.625000 Z " fill="rgb(0, 0, 0)" fill-opacity="1.000000" />
<path d="M 25.947266 9.718750 L 36.707031 9.718750 L 36.707031 8.625000 L 25.947266 8.625000 Z " fill="rgb(0, 0, 0)" fill-opacity="1.000000" />
<path d="M 40.853516 18.742188 L 40.853516 8.625000 L 34.947266 8.625000 L 34.947266 9.718750 L 39.800781 9.718750 L 39.800781 18.742188 Z " fill="rgb(0, 0, 0)" fill-opacity="1.000000" />
</svg>